<svg width="12" height="12" viewBox="0 0 12 12" fill="none" xmlns="http://www.w3.org/2000/svg">
<path d="M5.99916 6.96595L1.34891 11.6164C1.22195 11.7432 1.06237 11.8082 0.870177 11.8112C0.678136 11.8141 0.515656 11.7492 0.38274 11.6164C0.249976 11.4835 0.183594 11.3225 0.183594 11.1333C0.183594 10.9442 0.249976 10.7832 0.38274 10.6503L5.03322 6.00001L0.38274 1.34976C0.255934 1.2228 0.191004 1.06323 0.187948 0.871032C0.185045 0.67899 0.249976 0.516511 0.38274 0.383594C0.515656 0.25083 0.676684 0.184448 0.865823 0.184448C1.05496 0.184448 1.21599 0.25083 1.34891 0.383594L5.99916 5.03407L10.6494 0.383594C10.7764 0.256789 10.9359 0.191858 11.1281 0.188802C11.3202 0.1859 11.4827 0.25083 11.6156 0.383594C11.7483 0.516511 11.8147 0.677539 11.8147 0.866678C11.8147 1.05582 11.7483 1.21684 11.6156 1.34976L6.9651 6.00001L11.6156 10.6503C11.7424 10.7772 11.8073 10.9368 11.8104 11.129C11.8133 11.321 11.7483 11.4835 11.6156 11.6164C11.4827 11.7492 11.3216 11.8156 11.1325 11.8156C10.9434 11.8156 10.7823 11.7492 10.6494 11.6164L5.99916 6.96595Z" fill="#F07930"/>
</svg>
