<svg width="20" height="20" viewBox="0 0 20 20" fill="none" xmlns="http://www.w3.org/2000/svg">
<path d="M10.0008 11.5806L2.39125 19.1905C2.1835 19.398 1.92238 19.5042 1.60788 19.5092C1.29363 19.514 1.02775 19.4077 0.81025 19.1905C0.593 18.973 0.484375 18.7095 0.484375 18.4C0.484375 18.0905 0.593 17.827 0.81025 17.6095L8.42013 9.99999L0.81025 2.39049C0.60275 2.18274 0.4965 1.92161 0.4915 1.60711C0.48675 1.29286 0.593 1.02699 0.81025 0.809487C1.02775 0.592237 1.29125 0.483612 1.60075 0.483612C1.91025 0.483612 2.17375 0.592237 2.39125 0.809487L10.0008 8.41936L17.6103 0.809487C17.818 0.601987 18.0791 0.495737 18.3936 0.490737C18.7079 0.485987 18.9738 0.592237 19.1913 0.809487C19.4085 1.02699 19.5171 1.29049 19.5171 1.59999C19.5171 1.90949 19.4085 2.17299 19.1913 2.39049L11.5814 9.99999L19.1913 17.6095C19.3988 17.8172 19.505 18.0784 19.51 18.3929C19.5148 18.7071 19.4085 18.973 19.1913 19.1905C18.9738 19.4077 18.7103 19.5164 18.4008 19.5164C18.0913 19.5164 17.8278 19.4077 17.6103 19.1905L10.0008 11.5806Z" fill="#F1F2F3"/>
</svg>
